<?xml version="1.0" standalone="no"?>
<!DOCTYPE svg PUBLIC "-//W3C//DTD SVG 1.1//EN" "http://www.w3.org/Graphics/SVG/1.1/DTD/svg11.dtd">

<svg style="stroke-width:0.7pt; stroke-linejoin: round; stroke:#000; fill:#f3f3f0;" xmlns="http://www.w3.org/2000/svg" font-family="Helvetica, Arial, FreeSans, Sans, sans, sans-serif" height="701px" viewBox="0 0 500 701" width="500px" version="1.1" xmlns:xlink="http://www.w3.org/1999/xlink" enable-background="new 0 0 500 701">

<defs>

<style type="text/css">path { fill-rule: evenodd; }
#context path { fill: #eee; stroke: #bbb; } </style>

</defs>

<metadata>

<views>

<view padding="0" h="701" w="500.853044494">

<proj dist="1.15" lat0="46.1349719661" tilt="0" up="23" lon0="11.1207079608" id="satellite" />

<bbox y="930.01" h="674.49" w="482.6" x="700.5" />

<llbbox lon1="180" lon0="-180" lat1="90" lat0="-90" />

</view>

</views>

</metadata>

<g id="regions">

<path data-nuts2="ITD2" d="M300.673589,99.366883L303.421814,97.144331L304.827997,95.243608L305.940237,93.515437L308.488494,92.325155L309.931486,90.826456L311.469327,89.068091L313.727376,89.030372L315.551834,90.088257L317.343898,88.997610L317.826134,86.765913L320.901489,88.291658L323.638057,87.337534L327.317000,89.034521L327.314885,91.610521L329.531442,93.026646L331.769030,92.250822L331.499060,90.005071L333.985004,88.925742L333.804538,86.474919L335.933196,85.523325L338.571012,86.408131L340.635455,87.067473L345.025917,86.693678L348.000898,85.520792L349.246071,83.853661L348.048482,82.065951L348.638881,79.931808L347.951697,77.515964L345.694046,77.145888L346.557868,74.453622L345.797012,72.531808L346.234150,70.136107L348.450589,69.669100L349.935360,67.337318L352.409776,67.140538L352.657699,65.072343L350.008631,63.508079L350.014366,60.872171L347.724432,60.590846L345.768389,59.866612L343.048794,60.310274L341.105821,61.462782L339.252254,64.088809L336.676132,65.133449L334.421528,66.030442L332.392899,64.644780L330.637201,66.119321L328.194994,65.736172L326.256422,67.422293L324.581329,68.691294L324.629736,66.197497L321.296788,67.578915L318.768728,68.829968L315.942766,67.934484L316.158673,65.351652L317.073954,63.077917L318.882374,61.656466L320.616343,59.479382L321.862336,57.689769L322.273094,55.723164L323.639414,53.982138L324.202581,51.452506L321.935084,50.933642L319.680694,49.483818L319.708137,46.807764L317.163624,47.073038L317.626663,49.233645L316.865092,52.358699L315.478497,50.189243L312.633874,48.346318L310.200516,49.249153L307.570539,48.743311L305.034663,47.138342L303.717829,43.533986L301.933766,44.466637L299.684546,44.155148L297.491484,43.534372L297.124298,43.735625L296.775682,46.219366L295.007602,47.571287L291.834289,47.223562L290.023941,48.130342L291.350794,50.862048L290.815335,53.497237L289.103036,56.803743L287.303109,59.144788L286.041496,61.066695L284.606205,63.710900L282.451746,64.846834L280.326451,66.487146L278.397555,67.996090L277.301108,69.889226L277.854665,72.531483L278.160101,74.887838L276.815566,77.376937L275.483159,80.020293L276.892263,81.807493L276.317154,83.957515L279.109232,83.689170L280.994068,84.484960L282.181729,82.804709L284.383167,83.093027L286.384641,84.042201L288.302940,85.353163L290.346169,86.329703L291.231871,88.854700L289.666210,91.279228L287.406048,93.473259L289.469397,95.176572L289.787404,97.503461L291.921229,98.304361L294.696719,97.617827L297.093150,98.848992L298.993191,100.609839Z " />

<path data-nuts2="ITD1" d="M321.296788,67.578915L324.629736,66.197497L324.581329,68.691294L326.256422,67.422293L328.194994,65.736172L330.637201,66.119321L332.392899,64.644780L334.421528,66.030442L336.676132,65.133449L339.252254,64.088809L341.105821,61.462782L343.048794,60.310274L345.768389,59.866612L347.724432,60.590846L350.014366,60.872171L354.518074,62.071319L357.556329,62.122315L359.516773,63.402660L362.213144,61.262523L363.841163,59.456725L365.660903,57.810927L366.245172,55.645904L368.010855,58.619437L369.656738,60.081268L370.792682,62.404688L373.608344,62.663692L375.830450,62.908098L377.480344,64.348847L380.056833,63.662086L381.950066,62.565248L384.190669,62.594176L384.196799,62.087829L381.942868,60.139482L380.912385,58.140823L381.390655,54.438842L378.410027,52.602586L379.201507,50.577970L380.489984,48.993232L380.557716,46.068414L377.826707,45.644691L376.390652,42.633931L377.405737,40.835351L376.786635,38.424949L377.147621,35.590461L380.163990,35.470982L382.237630,34.845666L383.673876,32.719612L380.319441,31.535174L377.989114,30.694881L375.159090,30.828674L372.138600,30.365327L369.829947,30.297722L367.553381,30.907485L364.546080,31.376009L362.147317,30.439165L360.036684,31.292763L359.144742,29.130563L357.075482,28.371563L356.035386,26.353220L353.450139,26.590707L350.840041,24.801193L347.996735,24.512170L345.757204,25.483033L343.879417,22.913386L341.527922,22.411594L339.065545,22.098572L336.071265,21.098625L334.350931,22.477551L331.452369,22.465399L330.140764,24.596772L327.847443,26.355893L327.565196,28.479777L325.305634,29.123940L322.318769,30.394181L319.166791,28.439530L316.784215,28.119946L315.138115,26.819791L313.544517,24.900925L311.514527,23.478187L313.808634,22.603351L312.433373,20.895939L311.989971,18.874655L310.275450,17.794082L305.965242,17.810674L303.953041,16.687549L302.004403,15.156294L300.781350,16.867544L298.168066,18.444926L297.740254,20.930850L295.045554,23.256379L293.635328,25.152525L293.143475,27.578494L295.152346,28.118276L295.537586,32.148764L294.223678,33.986451L292.473553,35.112444L293.330437,38.001959L296.235003,41.099479L297.491484,43.534372L299.684546,44.155148L301.933766,44.466637L303.717829,43.533986L305.034663,47.138342L307.570539,48.743311L310.200516,49.249153L312.633874,48.346318L315.478497,50.189243L316.865092,52.358699L317.626663,49.233645L317.163624,47.073038L319.708137,46.807764L319.680694,49.483818L321.935084,50.933642L324.202581,51.452506L323.639414,53.982138L322.273094,55.723164L321.862336,57.689769L320.616343,59.479382L318.882374,61.656466L317.073954,63.077917L316.158673,65.351652L315.942766,67.934484L318.768728,68.829968Z " />

<path data-nuts2="ITC2" d="M156.292968,43.795226L157.470733,41.950297L159.445157,41.377039L159.050284,39.154610L160.312895,37.401470L161.904609,35.184774L160.737946,32.288202L160.925705,30.170951L161.910699,27.778341L163.131235,25.382818L164.139943,23.021255L162.677748,21.548475L160.745640,19.877285L158.274453,19.708496L157.625062,16.877643L156.140366,15.158655L154.037414,12.864622L151.531273,14.115036L149.613693,13.121111L146.978501,13.675021L144.818599,14.380245L142.567350,13.696665L141.075998,11.965844L138.961809,12.125059L135.891593,11.926523L134.105107,12.955006L133.323561,11.024602L130.380674,11.057690L130.405965,8.398718L129.872324,6.033840L127.762606,6.492934L126.543369,8.136103L124.103256,8.033110L121.986858,8.383675L119.642035,8.452930L117.995393,6.715063L116.825338,8.365898L115.522987,9.924020L114.736963,11.862480L114.453762,13.911136L114.770163,16.283439L116.843889,18.325970L116.946850,20.661435L119.349127,21.971812L118.308198,23.794092L116.960418,26.957364L116.075390,28.944644L116.390990,31.661242L116.844331,33.730507L118.964182,35.153348L119.628848,34.865530L121.575228,33.668851L122.211812,35.615292L124.079025,37.390387L127.309978,35.639836L129.467402,36.739178L131.866590,37.713617L134.178403,37.261836L136.218816,36.483579L138.588348,35.947909L141.226997,36.808027L143.112869,38.509861L144.808175,40.012211L147.503685,42.064068L149.462753,42.532186L151.618649,41.992755L154.390176,42.093095L156.032430,43.799100Z " />

<path data-nuts2="ITC4" d="M292.654776,151.565781L289.825248,148.744267L289.118174,146.749355L287.841183,145.117778L288.319099,143.123487L286.017193,142.099184L284.799274,140.323571L286.338858,138.366088L283.464247,137.626951L280.979426,136.952733L279.692903,134.280234L281.208656,132.966111L278.820847,132.155326L279.909575,130.043680L279.000614,128.089686L278.473459,125.874624L277.102281,124.253855L275.114008,122.680298L274.834681,119.696746L273.875878,117.772627L270.837971,118.255409L271.021355,115.928658L270.616572,113.501503L272.303942,112.144528L273.646640,110.182370L271.117286,108.211546L271.521445,106.214850L275.131164,96.415569L280.218992,93.625330L288.077750,87.919681L290.346169,86.329703L288.302940,85.353163L286.384641,84.042201L284.383167,83.093027L282.181729,82.804709L280.994068,84.484960L279.109232,83.689170L276.317154,83.957515L276.892263,81.807493L275.483159,80.020293L276.815566,77.376937L278.160101,74.887838L277.854665,72.531483L277.301108,69.889226L278.397555,67.996090L280.326451,66.487146L282.451746,64.846834L284.606205,63.710900L286.041496,61.066695L287.303109,59.144788L289.103036,56.803743L290.815335,53.497237L291.350794,50.862048L290.023941,48.130342L291.834289,47.223562L295.007602,47.571287L296.775682,46.219366L297.124298,43.735625L297.491484,43.534372L296.235003,41.099479L293.330437,38.001959L292.473553,35.112444L291.464569,33.242500L289.506100,32.180266L287.504650,31.472159L286.376192,29.591954L285.016416,27.342199L286.066336,24.589714L283.825135,24.326646L278.843910,25.163394L276.775421,26.232952L275.249181,27.593477L274.161433,29.510630L273.420036,31.816941L272.675865,34.194935L275.066172,35.421121L276.645065,36.866648L275.065785,38.396195L272.715832,39.846966L271.954261,42.422550L272.800474,44.937462L273.010420,47.057346L270.170100,48.309637L267.305212,47.629376L267.714814,45.481861L267.134466,43.020209L266.892166,40.263252L267.307792,37.571457L266.682454,35.223543L264.784057,34.284312L262.587649,34.654655L260.062033,34.512136L257.890278,34.662169L256.583997,32.894146L254.994205,34.182870L254.006141,36.070628L252.115025,35.006182L249.563811,33.969926L247.169318,32.309840L246.524143,30.169380L246.645175,27.587536L246.127001,25.301033L246.423122,23.058145L248.249200,20.272495L247.701946,17.896148L245.168084,17.931894L244.491445,15.976442L241.224872,15.049296L239.995744,17.158915L237.923400,18.498900L238.141565,21.967346L237.602848,24.920918L235.853434,26.697948L234.004158,28.182755L232.262476,30.757717L229.611997,31.444657L228.455595,33.109726L226.350103,33.431139L223.714888,34.289709L221.470817,34.542484L221.327978,36.804682L218.941845,37.564926L216.190884,38.738364L216.064430,41.409514L214.505633,43.187048L213.820302,45.288221L215.201868,46.812106L215.119200,49.138098L213.130351,50.531329L210.652124,52.118706L208.990770,50.297487L206.848239,48.564347L208.835940,46.269111L208.994382,44.141641L208.943581,42.050160L208.236072,39.953056L207.451263,37.895635L205.533000,36.910379L207.309184,35.275191L208.985975,34.172118L210.816849,32.860796L208.396336,30.344254L207.455127,27.803180L205.570968,28.811082L204.773796,29.476033L203.420169,34.189951L195.377665,37.297722L193.454740,38.838006L193.209020,42.088157L191.763109,43.759989L189.557377,45.477343L189.961398,47.812547L190.684053,49.890812L191.866308,51.764838L191.512282,54.677598L190.066244,56.205044L190.511065,58.630897L189.842235,60.610097L189.559275,63.025590L189.051123,65.378379L190.435289,66.968150L190.673055,69.658197L191.077676,72.428198L189.448100,75.045304L187.207929,74.456918L185.129517,74.007577L186.332013,76.205856L184.315901,76.232921L183.029331,78.109624L180.512319,77.782040L181.103998,75.463688L180.221158,73.083205L177.303733,71.719301L175.502925,73.368975L173.282386,74.402207L174.000397,76.590111L174.355654,78.748531L172.385606,79.255962L173.487895,81.542051L171.926724,83.070529L173.031820,85.133091L172.851545,88.036269L173.556843,90.788314L172.086423,92.703610L173.518242,94.228660L175.417297,95.525657L177.063589,97.567514L178.966377,96.269449L181.154992,96.772753L183.171294,96.847068L183.416478,99.060311L182.835944,101.713865L184.777666,102.629355L183.926675,105.484656L184.391102,108.076887L185.449347,110.295861L186.090707,112.418805L185.216779,114.719329L186.167077,116.845932L188.298646,117.527195L187.977246,120.199959L189.264426,122.229564L187.963257,123.901544L186.914931,126.078541L189.485804,126.543328L190.967295,128.358845L192.479075,126.888560L193.820894,124.948670L193.158388,122.420723L195.704557,121.615169L197.617717,119.514221L196.881058,116.478835L196.049997,114.620521L198.829386,112.811639L200.632031,111.496173L201.959230,109.675408L203.815684,108.864741L204.534865,106.875336L206.409369,106.018275L208.635401,105.549713L211.567168,106.091836L213.470422,107.932427L214.527532,105.278986L215.314290,108.102263L218.130813,108.098407L216.965722,110.014616L218.632470,111.239069L219.720933,113.162221L221.833839,112.656441L222.547858,110.503197L223.448939,112.501190L225.091108,115.318457L226.228227,113.289261L228.951447,114.573331L228.906624,112.189284L231.091712,112.667282L230.758340,114.651743L233.858802,113.959792L234.618708,116.973988L234.386821,119.388366L235.655346,121.055439L236.017444,123.117267L239.355383,123.019794L240.975263,124.414830L242.795427,127.902852L244.821426,130.065952L246.103850,131.626911L248.544835,131.927182L249.542480,135.371528L251.359830,137.978520L254.424738,139.117040L256.465976,139.341348L260.452321,138.262671L263.038980,137.991626L262.282083,140.007335L265.003121,142.005522L266.990292,143.921343L269.237774,144.856989L271.837754,145.164763L273.730205,144.467590L277.291894,145.400767L279.163076,146.892125L280.587263,148.531252L284.212280,149.654023L286.552259,149.793416L288.632986,150.258643L290.755526,151.429907L292.731396,152.874687Z " />

<path data-nuts2="ITF1" d="M355.404649,401.964727L357.514565,401.340756L359.682635,399.865227L361.363439,397.861781L364.253349,397.087222L365.261009,395.317072L367.379183,394.281063L369.327860,392.880543L371.817726,391.092354L373.346437,389.740301L371.927261,388.084958L372.070707,384.880479L372.210787,382.255421L368.663469,378.947807L365.337396,372.999347L362.934422,367.167120L362.681889,365.127155L360.933333,363.139865L357.413135,356.706045L356.232815,354.693491L355.214081,351.554289L354.237558,348.964308L353.746899,346.641077L352.622482,338.575187L352.509349,331.525473L353.496059,325.503447L348.772926,324.806608L346.067433,325.221902L343.589802,324.590267L341.736542,326.272431L339.689079,326.526081L338.114854,325.275168L336.045391,325.129431L334.404181,323.854013L332.570878,325.005554L330.892173,327.410602L328.713999,327.490844L326.311533,328.578162L322.792786,328.113137L322.314951,328.457333L322.237249,331.073564L323.451096,332.918888L321.923511,335.004915L319.154098,335.103361L316.607017,333.601444L313.989005,332.582219L311.182706,332.586230L309.647879,333.927027L309.984010,335.979064L309.189195,338.009521L305.853879,339.463276L306.500927,341.541789L307.266266,344.149034L305.643833,345.791766L307.456231,348.535270L306.855347,351.741115L307.816044,353.946140L309.577172,355.587068L309.778606,357.791652L309.652028,359.941218L307.594516,360.115733L305.312514,360.226777L302.973687,359.079424L300.666733,357.689175L299.167397,355.288972L296.875304,355.970247L294.883979,357.406772L292.638858,358.308881L291.544390,361.191079L292.011281,363.703718L294.545956,363.986233L296.596283,366.484677L297.990852,368.054570L299.590011,369.671311L301.577771,372.032299L302.717469,372.701015L304.158901,374.651596L303.590433,377.228303L302.571243,379.239337L302.240890,381.314855L304.432193,380.977542L306.173109,383.532076L307.713939,386.415734L310.611634,387.940392L313.872023,386.675985L316.044441,387.359503L317.854434,389.119074L318.380555,391.980595L321.040871,393.531401L323.394109,395.249713L324.947698,396.568935L325.232907,398.665814L327.259204,398.904473L328.714281,400.324321L331.198535,398.712281L333.577074,398.282994L333.435443,400.312352L335.914627,398.553806L338.464166,399.344295L338.136882,397.165946L338.883099,393.218687L342.043797,393.455956L344.110470,392.216923L346.564344,391.160484L347.965775,393.411660L348.774648,395.412994L350.835286,395.477181L352.289430,398.028428L351.721489,400.818284L352.275646,403.466978Z " />

<path data-nuts2="ITD3" d="M333.823640,180.232059L336.064003,179.152113L341.792070,173.341879L343.088682,171.694768L341.819866,170.142135L340.205148,168.145758L338.675855,164.939604L337.540836,162.362897L337.098872,160.287466L337.571213,158.118138L338.713906,156.126381L338.395677,152.830759L339.535628,150.059873L340.796417,147.757085L343.580289,144.023888L346.223761,141.741774L349.501081,141.694655L351.484616,140.723635L358.146362,140.593761L365.209293,140.216188L369.074037,139.320180L376.089821,138.182075L379.283783,138.253277L385.150167,139.342588L384.348224,138.570845L383.916118,136.329386L384.036343,134.139417L383.218152,132.136037L384.191870,130.210539L383.129236,127.817556L384.487564,126.209831L383.953050,123.886438L381.911979,124.228106L379.802082,123.892201L378.500384,122.151718L376.459782,122.481598L375.708008,120.380314L373.646687,120.526400L369.838917,122.414553L369.560999,120.172574L368.109172,118.305956L365.845170,118.214641L366.288477,116.262800L366.073423,114.196038L365.939520,111.081235L364.608618,109.250657L363.205824,107.507129L364.428934,105.113266L364.660934,102.911718L365.257462,100.769602L367.127243,99.631132L369.692369,99.219116L371.103980,97.485136L370.392278,95.009960L370.677984,91.993637L368.000462,89.786845L366.744472,88.093998L366.755036,85.885051L369.114074,84.041826L370.915092,82.933361L373.591355,82.555861L376.329057,80.859461L378.349717,78.987661L381.126445,77.912979L384.195915,78.580821L386.841305,78.379367L386.495143,75.967217L389.791661,75.364800L392.081404,74.883172L393.481853,72.577681L394.062743,69.920445L393.720445,68.707093L391.711446,67.249709L389.921903,66.277473L387.236845,65.900583L384.190669,62.594176L381.950066,62.565248L380.056833,63.662086L377.480344,64.348847L375.830450,62.908098L373.608344,62.663692L370.792682,62.404688L369.656738,60.081268L368.010855,58.619437L366.245172,55.645904L365.660903,57.810927L363.841163,59.456725L362.213144,61.262523L359.516773,63.402660L357.556329,62.122315L354.518074,62.071319L350.008631,63.508079L352.657699,65.072343L352.409776,67.140538L349.935360,67.337318L348.450589,69.669100L346.234150,70.136107L345.797012,72.531808L346.557868,74.453622L345.694046,77.145888L347.951697,77.515964L348.638881,79.931808L348.048482,82.065951L349.246071,83.853661L348.000898,85.520792L345.025917,86.693678L340.635455,87.067473L338.571012,86.408131L335.933196,85.523325L333.804538,86.474919L333.985004,88.925742L331.499060,90.005071L331.769030,92.250822L329.531442,93.026646L327.314885,91.610521L327.317000,89.034521L323.638057,87.337534L320.901489,88.291658L317.826134,86.765913L317.343898,88.997610L315.551834,90.088257L313.727376,89.030372L311.469327,89.068091L309.931486,90.826456L308.488494,92.325155L305.940237,93.515437L304.827997,95.243608L303.421814,97.144331L300.673589,99.366883L298.993191,100.609839L297.093150,98.848992L294.696719,97.617827L291.921229,98.304361L289.787404,97.503461L289.469397,95.176572L287.406048,93.473259L289.666210,91.279228L291.231871,88.854700L290.346169,86.329703L288.077750,87.919681L280.218992,93.625330L275.131164,96.415569L271.521445,106.214850L271.117286,108.211546L273.646640,110.182370L272.303942,112.144528L270.616572,113.501503L271.021355,115.928658L270.837971,118.255409L273.875878,117.772627L274.834681,119.696746L275.114008,122.680298L277.102281,124.253855L278.473459,125.874624L279.000614,128.089686L279.909575,130.043680L278.820847,132.155326L281.208656,132.966111L279.692903,134.280234L280.979426,136.952733L283.464247,137.626951L286.338858,138.366088L284.799274,140.323571L286.017193,142.099184L288.319099,143.123487L287.841183,145.117778L289.118174,146.749355L289.825248,148.744267L292.654776,151.565781L292.731396,152.874687L292.292814,154.246205L295.120805,154.818239L297.296792,155.887354L298.810925,158.141809L299.610338,160.331416L302.722182,159.653180L306.712082,158.722962L308.981702,158.624975L311.709721,159.091425L314.405603,159.823583L317.634656,160.494740L321.169822,162.669305L323.127147,164.499171L323.588566,166.890021L325.774602,167.117977L327.711539,169.307366L330.528948,168.956975L329.924602,171.157739L329.209560,174.593732L331.006116,175.997985L330.725786,178.310104L331.985057,180.475000Z " />

<path data-nuts2="ITE3" d="M328.713999,327.490844L330.892173,327.410602L332.570878,325.005554L334.404181,323.854013L336.045391,325.129431L338.114854,325.275168L339.689079,326.526081L341.736542,326.272431L343.589802,324.590267L346.067433,325.221902L348.772926,324.806608L353.496059,325.503447L353.605557,320.121271L354.473439,314.606890L355.228142,311.338465L355.113236,306.720359L355.503259,302.182901L355.365598,297.954029L354.896407,295.075759L355.297644,288.207441L355.161552,285.116277L355.637457,281.204183L355.353359,278.711987L354.549428,276.658200L352.933871,273.171230L351.184657,274.151731L348.771496,272.234708L346.365524,269.270624L344.011887,266.161788L340.636707,259.789453L338.759090,256.152983L337.433425,252.767014L335.070213,249.349947L332.258861,244.038013L329.043420,239.769665L326.920438,238.702594L327.011166,239.187830L324.390472,242.925088L322.997330,244.891653L320.910760,244.672178L319.236167,245.790053L317.131166,244.546791L317.544206,242.573070L316.720613,240.694328L314.790171,241.434666L315.370984,239.126417L313.934659,237.358593L313.149191,238.430099L310.006644,236.926913L309.721784,236.587301L310.192802,235.430569L310.897695,233.281482L309.450106,232.152876L307.338925,231.381967L304.857014,232.701755L302.809785,233.337471L300.692972,231.978146L298.662844,232.523819L296.597825,234.221066L295.169799,236.247658L292.874642,238.403153L292.207036,240.346079L292.899908,240.952689L295.000825,240.863650L296.081686,242.556792L298.442688,243.057319L300.518519,242.899793L302.153062,245.450453L302.257668,248.152889L300.282727,247.538453L300.745635,245.507697L299.803810,247.462612L297.232896,247.442248L295.387407,248.746668L292.917705,248.705532L293.380791,251.173976L293.463551,252.475287L295.573442,253.250431L297.686711,253.547406L300.296593,253.706458L299.999304,255.779622L296.543187,258.640415L298.676310,260.470711L300.702049,259.645451L302.170435,261.516476L304.152115,261.946731L304.622329,263.955400L305.509481,266.896739L306.955667,270.605414L309.471438,270.145099L311.253864,271.720664L313.435778,269.731742L314.024361,272.211891L313.680500,274.305667L311.933491,275.279842L312.312067,277.447895L312.851458,279.492723L311.353382,281.921418L312.569963,283.566974L311.936684,285.555988L312.900691,287.649877L311.768317,290.440813L310.645947,292.847142L311.546796,295.521664L310.166758,298.341640L309.011507,300.508873L308.244360,303.403107L310.068940,305.753966L310.083185,308.450182L310.158084,310.891032L312.693201,309.552390L314.858352,310.287947L316.324999,311.867119L317.133449,316.239452L319.745455,316.546660L321.452237,315.364107L321.331357,317.547588L320.376816,320.130535L317.651786,321.237926L315.979645,322.817110L316.752869,323.224195L319.632238,323.667475L321.692990,325.592063L322.792786,328.113137L326.311533,328.578162Z " />

<path data-nuts2="ITC1" d="M118.221797,134.709276L120.795574,134.783359L122.252897,136.166036L124.209680,135.021838L124.661267,132.274538L125.152455,130.225537L126.819137,128.727141L126.218960,126.395232L128.099625,127.322106L130.149143,126.095095L132.217487,123.878766L134.426856,123.292703L137.025404,121.785396L136.769699,119.250121L138.589235,117.644273L141.066002,116.467473L141.814402,118.345926L142.908827,120.394104L143.863033,122.574429L145.907723,121.837559L147.917688,121.683690L150.354457,122.225298L153.283987,124.103228L155.470962,123.620882L156.846541,121.897434L158.835692,120.548288L160.597891,121.667368L162.636528,122.696041L162.854369,125.050280L163.396978,127.273567L163.405182,129.434249L164.920893,127.596570L167.825966,126.528084L169.532572,128.210578L171.298085,126.669284L172.042617,124.758935L172.955473,122.609923L174.779535,121.257452L176.229958,122.890232L178.289964,124.027654L178.673205,127.153690L180.300715,128.416265L180.028879,130.720527L181.653190,132.045357L184.973221,130.620051L185.752137,128.258516L186.914931,126.078541L187.963257,123.901544L189.264426,122.229564L187.977246,120.199959L188.298646,117.527195L186.167077,116.845932L185.216779,114.719329L186.090707,112.418805L185.449347,110.295861L184.391102,108.076887L183.926675,105.484656L184.777666,102.629355L182.835944,101.713865L183.416478,99.060311L183.171294,96.847068L181.154992,96.772753L178.966377,96.269449L177.063589,97.567514L175.417297,95.525657L173.518242,94.228660L172.086423,92.703610L173.556843,90.788314L172.851545,88.036269L173.031820,85.133091L171.926724,83.070529L173.487895,81.542051L172.385606,79.255962L174.355654,78.748531L174.000397,76.590111L173.282386,74.402207L175.502925,73.368975L177.303733,71.719301L180.221158,73.083205L181.103998,75.463688L180.512319,77.782040L183.029331,78.109624L184.315901,76.232921L186.332013,76.205856L185.129517,74.007577L187.207929,74.456918L189.448100,75.045304L191.077676,72.428198L190.673055,69.658197L190.435289,66.968150L189.051123,65.378379L189.559275,63.025590L189.842235,60.610097L190.511065,58.630897L190.066244,56.205044L191.512282,54.677598L191.866308,51.764838L190.684053,49.890812L189.961398,47.812547L189.557377,45.477343L191.763109,43.759989L193.209020,42.088157L193.454740,38.838006L195.377665,37.297722L203.420169,34.189951L204.773796,29.476033L205.570968,28.811082L204.975032,28.210701L203.562845,26.724139L202.095970,24.530202L201.467821,21.828885L201.390133,19.732466L201.258585,17.713173L198.958431,15.534457L199.304350,13.387901L200.879033,9.794450L202.745909,7.579702L203.636449,4.936174L204.300137,2.844459L204.651258,0.831273L200.964335,0.000000L198.449595,0.847719L196.403252,1.139797L196.508955,3.542100L194.097296,3.390343L192.181503,4.296724L190.275850,5.726719L187.762780,5.574603L185.290352,5.551128L183.267418,6.360695L184.092659,8.360125L184.548336,10.438631L184.463097,13.005068L182.413154,15.066298L180.115551,15.900569L176.718722,15.093470L175.105863,18.611398L173.360638,19.673407L171.354144,20.204322L168.382933,18.982585L166.249191,20.478442L164.139943,23.021255L163.131235,25.382818L161.910699,27.778341L160.925705,30.170951L160.737946,32.288202L161.904609,35.184774L160.312895,37.401470L159.050284,39.154610L159.445157,41.377039L157.470733,41.950297L156.292968,43.795226L156.032430,43.799100L154.390176,42.093095L151.618649,41.992755L149.462753,42.532186L147.503685,42.064068L144.808175,40.012211L143.112869,38.509861L141.226997,36.808027L138.588348,35.947909L136.218816,36.483579L134.178403,37.261836L131.866590,37.713617L129.467402,36.739178L127.309978,35.639836L124.079025,37.390387L122.211812,35.615292L121.575228,33.668851L119.628848,34.865530L118.964182,35.153348L118.385484,37.352976L120.582134,40.448059L118.929095,41.611205L116.697905,43.094249L114.983841,44.946561L114.336366,47.745728L112.307972,49.252147L109.493014,48.718253L107.482321,48.170669L105.271740,48.853705L103.644219,50.017159L101.225401,49.064828L100.448122,50.935196L98.221958,50.580476L97.387302,48.601222L95.820249,46.925298L93.975054,47.741877L91.562785,46.279748L88.916353,46.815888L88.548809,48.937685L88.092857,51.183948L87.762748,53.430996L89.908583,54.379568L89.562279,56.677371L89.915716,58.913159L88.575991,60.513963L88.492222,62.649654L89.167162,65.040621L90.794690,67.755688L94.039483,68.401306L95.220111,70.287083L96.780886,72.835286L95.029146,76.250613L94.333589,78.630029L95.376811,80.379002L94.901091,82.597796L93.241085,80.976137L91.379804,80.201781L88.710413,81.472874L88.427453,82.605408L86.796515,84.364426L85.701821,86.102030L82.852729,86.107214L81.068949,87.098699L80.659899,90.463443L81.290768,93.083641L81.447602,95.127746L79.370943,95.557841L78.461362,97.385510L78.846510,99.354036L79.234278,101.974796L79.517656,104.552984L79.172840,106.995023L80.019708,108.960040L82.023775,109.900574L83.195117,111.565065L85.001131,113.201560L85.973984,115.857316L87.263597,118.037819L88.571833,119.682636L90.983589,120.883742L92.503001,123.142733L95.438620,124.535401L98.382877,125.100809L100.848136,125.122334L102.974061,126.464872L104.468312,125.132417L105.261931,127.329310L104.431751,129.543684L104.553958,133.810970L105.989588,132.863625L107.005250,130.095286L109.403470,130.318526L110.695685,132.210694L113.131400,134.774409L115.102539,135.302902L117.153481,135.980072L119.139056,136.555584Z " />

<path data-nuts2="ITE1" d="M227.235491,311.263421L230.189176,309.277379L232.808567,310.169907L236.657325,310.622533L237.065920,308.339287L235.611307,306.535745L236.886841,304.843497L238.313607,303.190664L240.510423,304.545034L242.922325,303.486734L245.916307,303.519560L248.595273,303.007209L249.694583,300.850590L251.389301,298.976341L252.925478,296.858809L252.063763,294.995051L250.844529,293.159293L252.750932,291.500042L254.190631,293.579667L256.944953,291.879234L258.934275,292.984630L260.177590,292.357971L262.867451,291.757547L262.606767,289.567551L263.583628,287.586280L265.334226,285.292625L267.247935,282.977281L268.473708,281.365010L266.470526,280.224289L267.192976,277.759438L267.692696,275.285585L270.464738,273.884833L272.881824,273.890762L275.153791,272.272770L276.684156,270.217369L278.192708,272.072438L281.285523,271.974229L284.817251,271.380117L284.898657,269.230254L283.271359,270.815590L281.541539,269.300465L282.646898,267.255788L282.842299,265.162651L280.778006,263.507463L281.583412,261.265572L279.764904,259.762755L281.793597,258.950139L284.002263,259.159493L286.314540,257.580641L285.031530,255.729202L286.586630,254.085629L288.512578,255.142914L291.362814,252.296349L293.380791,251.173976L292.917705,248.705532L295.387407,248.746668L297.232896,247.442248L299.803810,247.462612L300.745635,245.507697L300.282727,247.538453L302.257668,248.152889L302.153062,245.450453L300.518519,242.899793L298.442688,243.057319L296.081686,242.556792L295.000825,240.863650L292.899908,240.952689L292.207036,240.346079L289.226389,239.004615L286.916019,237.599400L285.912544,235.122064L284.802080,232.972667L282.923902,231.968081L280.675496,231.048567L280.019081,228.611547L277.507605,224.637329L278.792982,222.631230L278.547861,219.965675L277.932997,216.622424L279.816279,215.792085L281.310605,214.124994L283.935956,212.746345L285.526647,210.586012L282.328762,209.396317L280.297239,209.428036L278.236929,207.639953L280.246470,206.597898L278.546848,204.577792L276.284936,204.338930L275.440667,203.632304L274.063470,201.161341L274.659032,199.029432L272.032478,198.005549L269.301883,197.927193L267.407364,199.179339L265.255945,199.830624L263.217281,198.779361L261.716409,200.334546L262.052076,202.811434L260.206460,201.737321L257.097078,199.785441L253.058460,199.496349L251.756481,197.961043L252.657851,195.804350L250.174294,196.379382L248.624849,197.733037L246.271425,198.654124L246.018830,196.311527L244.333559,194.357647L242.667023,192.316576L241.472353,189.832364L238.858156,188.445947L236.678044,187.322776L234.722732,189.402668L232.940860,187.779130L231.587637,183.427670L230.745355,181.469393L230.551609,179.417973L228.398733,178.130013L227.707762,176.048062L226.165673,174.673752L224.503940,172.717671L221.718264,171.812331L220.970301,169.208222L219.936667,167.454265L219.431287,165.456619L217.275338,165.063758L216.158058,162.740590L214.034010,159.339334L215.576780,157.121085L214.806016,155.205218L211.887808,153.291287L206.566762,153.108309L203.771344,154.527833L201.889731,155.745955L199.509375,155.673726L200.529584,156.308192L200.352488,158.821868L201.322610,161.062416L203.023580,163.169193L204.272811,164.915349L204.025919,168.233552L202.388752,170.703800L205.118019,169.771018L204.624318,172.445570L206.608127,173.422041L206.137714,175.565968L206.592675,177.911632L208.751002,178.392085L208.465612,180.851540L205.563115,182.197670L207.194216,184.259500L209.316406,188.932818L210.260815,192.254784L210.474763,198.089739L210.198081,201.111432L208.849321,206.312090L207.837255,209.214075L206.889155,211.613986L205.846990,215.092473L206.299429,217.160140L204.489519,218.327901L204.784787,220.592183L204.283070,223.573822L205.465682,225.218359L205.831160,227.371736L206.392921,229.631710L206.583151,231.980859L206.069429,235.182414L207.115700,238.297057L207.027290,241.450791L206.316999,244.425861L204.689385,248.757527L202.675649,252.732832L200.220686,256.217999L198.293416,257.126496L197.461584,260.021712L200.152273,260.173021L202.544205,260.629606L205.640814,262.154758L207.353755,263.509270L209.310698,266.342065L209.584191,268.435481L207.993740,270.762968L205.228822,272.944825L207.915552,275.907502L210.264261,277.683503L213.206707,280.807913L214.054636,283.369966L213.875198,287.013371L215.981622,290.885998L216.306003,293.182680L217.226091,295.187159L218.459167,297.029886L217.760007,300.547702L216.089171,302.646340L213.787242,302.403469L211.490521,302.072531L211.835764,305.041943L212.758774,307.514412L215.048646,307.134296L216.583084,305.748955L218.875369,305.929885L220.477257,307.414521L222.919531,308.980795L226.831251,312.246321Z M202.026236,304.508428L201.944238,302.323961L200.941892,300.504441L200.109924,302.725437L200.911333,305.636874Z M170.253940,273.648503L170.158201,271.616204L167.875541,272.220713L169.464889,273.942913Z M189.448080,270.717570L188.634278,268.163233L190.722348,268.095457L191.397046,265.708729L192.861302,264.084055L192.156624,261.911810L189.190518,263.953369L187.081284,263.696752L184.254901,261.557349L183.532098,263.446215L181.313512,262.932719L179.393135,261.119363L176.395346,260.593324L175.555062,262.937178L176.883356,265.387568L179.108436,266.066429L181.296524,266.025573L182.869983,267.768836L184.936434,266.909122L186.646640,269.024490L187.084394,271.326296Z M171.126869,240.135369L170.886206,237.984138L168.712491,239.710700L168.289421,241.939333Z " />

<path data-nuts2="ITD5" d="M320.910760,244.672178L322.997330,244.891653L324.390472,242.925088L327.011166,239.187830L326.920438,238.702594L325.379129,237.576898L323.926814,235.204845L322.349210,231.368706L321.777425,228.964989L320.165949,226.907294L318.342317,221.178657L316.840135,216.061974L316.877679,212.330431L317.496956,209.574403L317.552058,206.580482L318.636375,203.551319L319.453837,197.815098L319.771733,195.533018L321.943631,191.534789L322.292855,188.587358L322.386698,185.281998L322.764883,183.233047L324.147688,180.676224L325.814689,178.458046L327.096742,176.264697L329.705412,175.965813L329.619604,179.316639L331.985057,180.475000L330.725786,178.310104L331.006116,175.997985L329.209560,174.593732L329.924602,171.157739L330.528948,168.956975L327.711539,169.307366L325.774602,167.117977L323.588566,166.890021L323.127147,164.499171L321.169822,162.669305L317.634656,160.494740L314.405603,159.823583L311.709721,159.091425L308.981702,158.624975L306.712082,158.722962L302.722182,159.653180L299.610338,160.331416L298.810925,158.141809L297.296792,155.887354L295.120805,154.818239L292.292814,154.246205L292.731396,152.874687L290.755526,151.429907L288.632986,150.258643L286.552259,149.793416L284.212280,149.654023L280.587263,148.531252L279.163076,146.892125L277.291894,145.400767L273.730205,144.467590L271.837754,145.164763L269.237774,144.856989L266.990292,143.921343L265.003121,142.005522L262.282083,140.007335L263.038980,137.991626L260.452321,138.262671L256.465976,139.341348L254.424738,139.117040L251.359830,137.978520L249.542480,135.371528L248.544835,131.927182L246.103850,131.626911L244.821426,130.065952L242.795427,127.902852L240.975263,124.414830L239.355383,123.019794L236.017444,123.117267L235.655346,121.055439L234.386821,119.388366L234.618708,116.973988L233.858802,113.959792L230.758340,114.651743L231.091712,112.667282L228.906624,112.189284L228.951447,114.573331L226.228227,113.289261L225.091108,115.318457L223.448939,112.501190L222.547858,110.503197L221.833839,112.656441L219.720933,113.162221L218.632470,111.239069L216.965722,110.014616L218.130813,108.098407L215.314290,108.102263L214.527532,105.278986L213.470422,107.932427L211.567168,106.091836L208.635401,105.549713L206.409369,106.018275L204.534865,106.875336L203.815684,108.864741L201.959230,109.675408L200.632031,111.496173L198.829386,112.811639L196.049997,114.620521L196.881058,116.478835L197.617717,119.514221L195.704557,121.615169L193.158388,122.420723L193.820894,124.948670L192.479075,126.888560L190.967295,128.358845L189.485804,126.543328L186.914931,126.078541L185.752137,128.258516L184.973221,130.620051L186.999155,131.105851L187.518288,133.113845L189.473642,133.805384L191.857071,136.494365L193.994393,136.312243L194.784346,138.175841L195.649353,140.568325L195.364703,142.882410L193.044084,144.129467L191.550356,146.027278L189.955410,147.440741L191.838350,148.403856L193.806303,148.772945L195.835681,148.649755L197.880797,150.486585L199.391162,153.183187L199.509375,155.673726L201.889731,155.745955L203.771344,154.527833L206.566762,153.108309L211.887808,153.291287L214.806016,155.205218L215.576780,157.121085L214.034010,159.339334L216.158058,162.740590L217.275338,165.063758L219.431287,165.456619L219.936667,167.454265L220.970301,169.208222L221.718264,171.812331L224.503940,172.717671L226.165673,174.673752L227.707762,176.048062L228.398733,178.130013L230.551609,179.417973L230.745355,181.469393L231.587637,183.427670L232.940860,187.779130L234.722732,189.402668L236.678044,187.322776L238.858156,188.445947L241.472353,189.832364L242.667023,192.316576L244.333559,194.357647L246.018830,196.311527L246.271425,198.654124L248.624849,197.733037L250.174294,196.379382L252.657851,195.804350L251.756481,197.961043L253.058460,199.496349L257.097078,199.785441L260.206460,201.737321L262.052076,202.811434L261.716409,200.334546L263.217281,198.779361L265.255945,199.830624L267.407364,199.179339L269.301883,197.927193L272.032478,198.005549L274.659032,199.029432L274.063470,201.161341L275.440667,203.632304L276.284936,204.338930L278.546848,204.577792L280.246470,206.597898L278.236929,207.639953L280.297239,209.428036L282.328762,209.396317L285.526647,210.586012L283.935956,212.746345L281.310605,214.124994L279.816279,215.792085L277.932997,216.622424L278.547861,219.965675L278.792982,222.631230L277.507605,224.637329L280.019081,228.611547L280.675496,231.048567L282.923902,231.968081L284.802080,232.972667L285.912544,235.122064L286.916019,237.599400L289.226389,239.004615L292.207036,240.346079L292.874642,238.403153L295.169799,236.247658L296.597825,234.221066L298.662844,232.523819L300.692972,231.978146L302.809785,233.337471L304.857014,232.701755L307.338925,231.381967L309.450106,232.152876L310.897695,233.281482L312.390842,233.762525L314.526917,233.020153L316.238306,234.107145L315.606650,236.094342L313.934659,237.358593L315.370984,239.126417L314.790171,241.434666L316.720613,240.694328L317.544206,242.573070L317.131166,244.546791L319.236167,245.790053Z " />

<path data-nuts2="ITD4" d="M418.267311,154.679387L421.085455,153.975386L419.571504,151.737057L419.145477,147.856721L418.315046,144.843621L416.043883,142.365608L414.483115,139.804077L412.801707,138.537996L411.144765,137.406756L411.067307,134.786330L412.553111,132.540147L414.774778,130.933278L416.261674,129.046005L417.274974,126.522675L414.646477,125.970457L412.640918,126.507916L411.268738,124.833257L411.943842,122.455748L412.712759,120.420998L414.625078,119.833738L417.059183,119.159359L418.976498,118.097361L422.209305,116.555613L423.278740,114.408468L421.308307,113.429769L419.169634,112.799203L418.379900,110.121087L416.565590,109.004967L414.115263,107.313045L413.621963,104.816059L413.609452,102.478791L415.692153,102.706689L417.628236,101.599248L417.934400,99.599345L420.246631,99.746539L423.192524,99.347080L425.127037,98.822346L426.812170,97.257562L430.533577,98.839954L431.698085,97.062759L433.648644,94.974888L432.201614,93.178059L430.683434,91.254995L428.126156,89.511503L426.138524,89.087060L424.381756,87.652247L421.975607,85.594511L418.963768,84.704885L416.782306,84.433191L413.999798,83.820439L412.536179,81.891037L410.884492,80.135507L408.516115,78.108579L405.831207,77.011899L402.665269,75.780031L400.240176,74.429032L398.419002,72.242789L396.916686,70.447988L394.062743,69.920445L393.481853,72.577681L392.081404,74.883172L389.791661,75.364800L386.495143,75.967217L386.841305,78.379367L384.195915,78.580821L381.126445,77.912979L378.349717,78.987661L376.329057,80.859461L373.591355,82.555861L370.915092,82.933361L369.114074,84.041826L366.755036,85.885051L366.744472,88.093998L368.000462,89.786845L370.677984,91.993637L370.392278,95.009960L371.103980,97.485136L369.692369,99.219116L367.127243,99.631132L365.257462,100.769602L364.660934,102.911718L364.428934,105.113266L363.205824,107.507129L364.608618,109.250657L365.939520,111.081235L366.073423,114.196038L366.288477,116.262800L365.845170,118.214641L368.109172,118.305956L369.560999,120.172574L369.838917,122.414553L373.646687,120.526400L375.708008,120.380314L376.459782,122.481598L378.500384,122.151718L379.802082,123.892201L381.911979,124.228106L383.953050,123.886438L384.487564,126.209831L383.129236,127.817556L384.191870,130.210539L383.218152,132.136037L384.036343,134.139417L383.916118,136.329386L384.348224,138.570845L385.150167,139.342588L385.961170,138.281408L388.451121,137.182374L390.321407,136.467779L393.469752,137.012264L393.449498,137.333064L395.496288,138.740404L397.051352,140.643689L398.539315,142.264352L402.176269,142.390005L402.194184,140.375224L403.509008,142.058317L407.298866,141.668684L406.674998,139.044949L408.789253,138.306835L410.556826,139.876987L411.913087,141.386410L413.692339,146.113890L414.890929,148.124777L414.809885,151.754250L415.151821,153.835874L412.608363,153.332902L414.055897,154.987302L416.302198,155.889552Z " />

<path data-nuts2="ITC3" d="M208.465612,180.851540L208.751002,178.392085L206.592675,177.911632L206.137714,175.565968L206.608127,173.422041L204.624318,172.445570L205.118019,169.771018L202.388752,170.703800L204.025919,168.233552L204.272811,164.915349L203.023580,163.169193L201.322610,161.062416L200.352488,158.821868L200.529584,156.308192L199.509375,155.673726L199.391162,153.183187L197.880797,150.486585L195.835681,148.649755L193.806303,148.772945L191.838350,148.403856L189.955410,147.440741L191.550356,146.027278L193.044084,144.129467L195.364703,142.882410L195.649353,140.568325L194.784346,138.175841L193.994393,136.312243L191.857071,136.494365L189.473642,133.805384L187.518288,133.113845L186.999155,131.105851L184.973221,130.620051L181.653190,132.045357L180.028879,130.720527L180.300715,128.416265L178.673205,127.153690L178.289964,124.027654L176.229958,122.890232L174.779535,121.257452L172.955473,122.609923L172.042617,124.758935L171.298085,126.669284L169.532572,128.210578L167.825966,126.528084L164.920893,127.596570L163.405182,129.434249L163.396978,127.273567L162.854369,125.050280L162.636528,122.696041L160.597891,121.667368L158.835692,120.548288L156.846541,121.897434L155.470962,123.620882L153.283987,124.103228L150.354457,122.225298L147.917688,121.683690L145.907723,121.837559L143.863033,122.574429L142.908827,120.394104L141.814402,118.345926L141.066002,116.467473L138.589235,117.644273L136.769699,119.250121L137.025404,121.785396L134.426856,123.292703L132.217487,123.878766L130.149143,126.095095L128.099625,127.322106L126.218960,126.395232L126.819137,128.727141L125.152455,130.225537L124.661267,132.274538L124.209680,135.021838L122.252897,136.166036L120.795574,134.783359L118.221797,134.709276L119.139056,136.555584L117.153481,135.980072L115.102539,135.302902L113.131400,134.774409L110.695685,132.210694L109.403470,130.318526L107.005250,130.095286L105.989588,132.863625L104.553958,133.810970L102.942314,134.634686L101.067477,135.366970L99.418057,137.859341L97.131760,138.099387L94.925670,138.509388L93.460221,140.403214L89.837573,140.812186L89.459007,142.822997L88.793803,146.777355L91.093577,147.259997L94.785462,150.293344L96.691047,149.523423L99.155022,150.106274L102.801297,151.251162L105.072332,150.900267L107.370377,151.438154L110.026303,151.477234L113.232914,151.219097L116.744944,150.702934L119.423675,150.163696L121.523565,150.004679L122.197329,147.400650L124.222317,146.314749L126.315393,145.634377L127.557575,143.132594L130.827058,140.673421L134.400382,140.711264L136.399429,140.468566L139.020240,139.982583L141.162507,138.298777L142.940168,135.363085L145.038871,134.715215L148.088656,134.310583L150.119083,133.589246L152.283029,133.859690L154.428095,133.183328L156.876723,132.936806L159.689547,132.835594L162.695871,135.191668L164.866661,136.582559L166.784147,138.434732L169.881814,140.709945L172.573130,142.503396L175.525540,146.084563L175.046078,148.483568L177.235956,148.987561L179.326909,148.361708L182.305881,152.031872L183.934012,155.791922L185.173811,157.535432L186.919392,159.282328L187.658310,161.390399L189.033829,162.756429L189.803601,164.878320L190.263475,166.921344L190.830967,168.963961L192.830869,169.462741L194.195008,172.594895L195.473074,175.382107L198.067366,176.689181L197.841973,174.505464L199.881429,174.865085L200.406787,177.195183L201.808761,179.357835L203.481260,181.932511L205.563115,182.197670Z " />

<path data-nuts2="ITE2" d="M278.647776,332.920008L280.820682,332.402332L281.880249,330.501616L283.759652,329.572909L285.248709,331.184691L288.769525,330.733782L289.087419,328.141151L291.428460,327.983418L293.499386,327.981480L295.733141,327.660291L298.492710,326.986779L299.504979,324.672906L302.216421,325.518553L305.982936,325.576496L307.211899,327.171292L311.839951,327.287899L314.112401,325.281763L315.979645,322.817110L317.651786,321.237926L320.376816,320.130535L321.331357,317.547588L321.452237,315.364107L319.745455,316.546660L317.133449,316.239452L316.324999,311.867119L314.858352,310.287947L312.693201,309.552390L310.158084,310.891032L310.083185,308.450182L310.068940,305.753966L308.244360,303.403107L309.011507,300.508873L310.166758,298.341640L311.546796,295.521664L310.645947,292.847142L311.768317,290.440813L312.900691,287.649877L311.936684,285.555988L312.569963,283.566974L311.353382,281.921418L312.851458,279.492723L312.312067,277.447895L311.933491,275.279842L313.680500,274.305667L314.024361,272.211891L313.435778,269.731742L311.253864,271.720664L309.471438,270.145099L306.955667,270.605414L305.509481,266.896739L304.622329,263.955400L304.152115,261.946731L302.170435,261.516476L300.702049,259.645451L298.676310,260.470711L296.543187,258.640415L299.999304,255.779622L300.296593,253.706458L297.686711,253.547406L295.573442,253.250431L293.463551,252.475287L293.380791,251.173976L291.362814,252.296349L288.512578,255.142914L286.586630,254.085629L285.031530,255.729202L286.314540,257.580641L284.002263,259.159493L281.793597,258.950139L279.764904,259.762755L281.583412,261.265572L280.778006,263.507463L282.842299,265.162651L282.646898,267.255788L281.541539,269.300465L283.271359,270.815590L284.898657,269.230254L284.817251,271.380117L281.285523,271.974229L278.192708,272.072438L276.684156,270.217369L275.153791,272.272770L272.881824,273.890762L270.464738,273.884833L267.692696,275.285585L267.192976,277.759438L266.470526,280.224289L268.473708,281.365010L267.247935,282.977281L265.334226,285.292625L263.583628,287.586280L262.606767,289.567551L262.867451,291.757547L260.177590,292.357971L258.934275,292.984630L259.250127,295.042516L259.951006,297.487022L260.863841,299.557393L259.309113,300.840518L257.039340,301.540587L258.701998,304.234571L260.277919,307.170292L264.350659,307.299516L266.348602,307.912030L268.140005,309.009244L269.096298,311.278405L269.214004,313.664121L268.096988,315.367490L269.154131,317.899903L268.313874,320.100740L269.457445,321.873940L270.811500,323.419670L272.982676,322.713774L274.678101,324.010367L273.231965,325.687489L272.786975,327.876568L274.800027,328.124218L274.150678,330.298954L276.307411,331.199302L276.404628,333.295088Z " />

<path data-nuts2="ITF2" d="M363.352761,428.499721L367.352012,428.493755L370.037197,428.005713L367.737830,424.499717L369.290312,421.620536L369.832037,418.921567L371.609805,417.839438L373.290321,420.006514L375.347185,419.721370L377.181815,418.456998L380.026901,417.491702L382.466924,417.243281L381.306722,414.214375L381.374491,412.009153L382.860727,410.127612L383.898421,407.994613L385.669339,406.126965L386.520353,403.988147L384.070951,401.977868L382.268561,397.128473L380.278742,396.275258L377.771668,394.572483L376.049600,393.048608L373.346437,389.740301L371.817726,391.092354L369.327860,392.880543L367.379183,394.281063L365.261009,395.317072L364.253349,397.087222L361.363439,397.861781L359.682635,399.865227L357.514565,401.340756L355.404649,401.964727L352.275646,403.466978L351.721489,400.818284L352.289430,398.028428L350.835286,395.477181L348.774648,395.412994L347.965775,393.411660L346.564344,391.160484L344.110470,392.216923L342.043797,393.455956L338.883099,393.218687L338.136882,397.165946L338.464166,399.344295L335.914627,398.553806L333.435443,400.312352L333.577074,398.282994L331.198535,398.712281L328.714281,400.324321L327.259204,398.904473L325.232907,398.665814L326.630777,401.344341L326.284439,403.386519L325.246270,406.070276L325.994242,407.947733L324.431308,410.085783L322.044667,410.668596L321.834845,415.037833L322.853720,417.795576L326.111107,419.065281L326.081279,416.418005L327.067993,414.054638L329.342409,412.401404L331.888792,414.038334L334.605245,414.962953L336.033351,417.161668L338.300223,419.178269L339.920312,420.478455L341.684708,422.050102L343.551587,424.081863L345.076333,426.176770L347.319614,426.513853L348.949129,428.668260L352.160049,427.193833L354.504091,428.411368L357.207233,427.812038L359.764688,427.119722L360.972623,428.911680Z " />

<path data-nuts2="ITG1" d="M125.353781,697.173726L122.199285,696.166428L124.038471,697.150843L125.459280,698.639527L126.891513,698.724361Z M125.375460,629.872153L124.614157,627.663796L122.747560,625.647891L120.408945,625.133710L120.531411,627.604135L121.166673,629.999653L122.928384,631.329270Z M268.015925,684.532064L268.212682,681.601910L269.371755,679.358153L270.469314,677.450041L272.284970,676.477213L274.694562,674.821558L277.998732,673.633185L280.228839,673.698749L281.923640,672.524516L284.044018,671.463209L282.322771,669.975532L284.327731,669.204148L283.080144,667.406145L283.041751,665.221680L281.235618,663.826720L281.493403,661.117661L283.694569,661.199531L285.305048,659.638897L284.386654,657.539448L282.173329,657.076823L279.957159,655.213478L280.340149,652.650288L281.417683,650.367501L283.658367,646.208351L285.395068,644.623094L287.330360,643.809566L289.234267,642.945933L290.800747,640.199561L292.270784,638.597980L294.005723,636.850820L294.736754,634.800254L297.882102,632.992913L300.070389,631.362748L301.668582,630.150034L304.251511,629.097606L305.871412,627.809614L311.755195,624.453314L314.771598,622.976970L318.153621,619.957925L320.333156,618.002121L323.007211,615.476196L326.524569,615.355953L324.523254,614.429475L320.878558,611.993484L315.642040,613.470626L311.687453,613.656526L307.754809,613.179467L306.599507,610.671951L304.024120,613.121264L301.614709,614.192649L297.700419,614.746175L295.524850,613.792932L293.545086,612.006175L291.664728,610.888086L290.196852,608.419779L286.876552,608.638521L283.230609,608.481292L281.681913,607.158338L276.745279,609.520556L273.891696,610.159125L271.684750,610.051774L268.495960,609.953482L265.810505,609.601022L263.629050,608.473019L260.750748,608.866810L257.552439,608.293196L255.742774,607.394353L253.716456,606.837703L251.132346,605.497678L249.043515,604.859831L246.221928,603.789665L244.784184,601.993223L242.187844,601.512346L240.044394,601.457522L238.056475,601.720982L234.743657,601.805213L232.585788,601.514775L229.918532,600.902510L228.748377,599.264537L226.797555,598.410033L224.996503,596.734994L223.131046,594.514260L222.859303,592.221720L223.370031,590.208647L220.947098,589.948894L216.782473,588.568001L215.461763,586.947151L216.590815,585.281478L216.076317,582.917994L215.054436,580.746719L212.655446,581.103596L210.022848,581.408951L207.167855,579.965231L205.404417,578.970918L203.089453,579.891388L201.043006,580.500471L201.153825,583.533122L198.415565,583.954726L195.347942,584.204519L191.992310,583.802062L190.460395,581.735934L188.890452,580.322224L188.393868,578.383643L188.648756,576.042612L188.550442,573.352775L185.941117,572.723528L186.233505,574.857843L184.336901,575.916123L182.020561,574.900244L180.491414,576.335424L178.334987,576.306719L176.250772,575.496410L174.325877,576.538184L172.183504,578.129437L170.811517,579.814539L168.041049,581.624398L168.611230,583.852807L166.763970,585.863689L164.766320,587.425646L165.085766,590.305206L164.255937,592.129273L165.565859,595.250699L167.571026,595.870692L169.255324,597.750963L169.418506,599.813324L170.940030,603.166902L176.075812,603.877715L179.649492,605.102406L182.383817,606.426418L184.141080,607.706185L185.107767,609.560429L185.620197,612.381032L188.560817,612.865475L192.574325,615.162204L194.097362,617.585199L195.114419,619.932582L195.225864,621.997006L197.021006,624.092478L199.104429,625.748165L200.792145,628.454146L202.252331,629.845134L204.385540,630.805907L206.392499,631.926283L207.613983,633.855291L209.165239,636.082707L209.522329,638.190668L211.280168,639.991965L212.670041,641.760963L217.076374,644.837358L218.424765,646.664397L222.705178,647.496879L225.262569,648.541419L227.362863,649.079989L231.497545,651.591456L235.143224,654.832055L237.282787,658.382553L238.319338,660.805202L239.441590,665.522306L239.409259,669.222969L241.143890,671.320363L242.979353,672.182782L246.135464,674.169139L247.534678,675.847139L248.602520,677.569976L250.941218,678.666797L253.617801,679.228384L255.664768,679.230076L258.441698,680.322639L260.664391,682.769160L263.327808,683.227626L263.957838,685.265456L266.404924,686.142294Z M298.488520,599.133285L297.032662,597.191112L296.040595,599.108185L297.523192,600.573967Z M299.642520,594.374545L299.552516,591.951857L296.601910,591.862017L296.025786,594.272806L297.416703,596.261289Z M295.415476,587.301793L292.906242,587.269703L293.025670,588.094578L295.684998,589.912938Z M163.378061,578.095518L161.998638,576.475621L159.996635,577.148249L161.650463,578.361673L162.998926,579.906502Z M151.750275,572.805456L151.102701,570.835185L149.677190,569.418526L149.824759,571.490663L151.309324,572.849340Z " />

<path data-nuts2="ITF3" d="M368.520561,518.593738L371.323058,515.976346L372.325563,513.889687L374.656249,513.186667L376.852412,512.812733L378.372823,511.144797L378.645103,508.799522L376.636676,507.464926L375.771398,504.560885L376.632083,502.192913L374.779927,499.673128L372.818897,495.537448L371.501769,493.143813L372.364955,491.127688L373.123029,488.941752L371.455358,487.523706L370.040362,485.632059L371.593633,484.191375L372.486315,482.289036L371.023656,480.558320L369.866173,477.515886L370.997515,475.711697L371.521785,473.044110L369.974067,470.987095L371.971344,471.552020L371.967703,468.520507L374.205519,469.321145L377.413387,469.847547L380.612904,469.699331L382.164548,468.046046L383.864480,466.780425L384.760107,463.496354L384.792253,461.390527L380.811524,458.640153L379.173566,456.212681L377.280732,457.025156L375.290501,455.126116L373.172764,453.708012L371.864210,451.483924L372.616152,449.580933L375.073945,448.878201L376.767109,446.565096L376.204630,444.419745L374.307174,442.762180L371.613933,441.428860L370.969947,439.452651L369.401531,438.049835L369.828448,435.529102L371.987025,435.056581L371.958339,432.234866L370.393142,430.377860L370.037197,428.005713L367.352012,428.493755L363.352761,428.499721L360.972623,428.911680L359.764688,427.119722L357.207233,427.812038L354.504091,428.411368L352.160049,427.193833L348.949129,428.668260L347.319614,426.513853L345.076333,426.176770L343.551587,424.081863L341.684708,422.050102L339.920312,420.478455L338.300223,419.178269L336.033351,417.161668L334.605245,414.962953L331.888792,414.038334L329.342409,412.401404L327.067993,414.054638L326.081279,416.418005L326.111107,419.065281L322.853720,417.795576L321.834845,415.037833L320.776719,412.244705L317.184883,413.529654L314.885120,413.784782L314.810458,415.783990L313.672708,418.144739L312.362831,420.701848L310.284708,422.014157L308.171820,422.172245L305.681094,423.021098L306.961635,425.553299L307.697068,427.721498L308.723239,432.705705L308.467975,437.354001L310.132692,441.930885L310.602653,446.398195L310.166830,449.340212L308.630446,452.874985L310.586113,453.971678L310.539710,451.665212L312.872306,452.394868L314.126470,454.670876L316.561304,454.490990L319.506087,453.708798L321.627564,454.535677L322.664424,456.907479L325.663299,461.418258L327.058422,463.054259L326.096428,465.341328L323.731529,466.369736L321.656033,467.469533L319.276011,466.877843L317.632638,468.086498L316.472733,470.169121L318.906879,469.811025L322.811908,469.543277L325.504146,469.498868L327.738384,471.173031L329.965375,471.242553L332.525868,470.529807L335.217580,472.414527L338.632265,470.747679L340.368973,472.000763L341.358686,473.820000L342.349566,476.478708L343.099141,479.701715L343.229926,484.810259L343.930072,488.629536L343.217539,492.800005L341.300671,493.468709L339.559950,494.620264L338.626926,496.747089L336.271710,498.012102L337.979510,499.218062L339.545083,500.664384L340.700133,504.161080L342.898696,504.670078L344.988800,505.455687L347.353595,509.283572L348.321552,511.744451L349.392401,514.324661L348.115940,515.942215L350.321508,516.137764L352.723867,518.802897L354.423562,519.978895L357.191701,518.235368L359.957936,517.150938L363.511273,517.389494L366.113654,520.436968Z M303.028877,455.987318L301.976610,453.069346L299.946285,451.962692L298.392243,452.682337L298.361907,455.355799L300.695366,456.170215Z " />

<path data-nuts2="ITF4" d="M487.956402,567.340031L489.673497,564.893410L490.397848,562.637963L492.083852,560.154390L494.354356,557.906731L496.603457,557.276427L497.678919,555.545206L500.178853,552.428378L499.734495,550.415887L499.368432,548.312968L499.879274,545.763500L499.929776,543.442709L498.554263,541.357736L498.059967,539.374248L496.680824,537.289598L495.802099,534.970508L494.712872,532.163950L492.470526,529.537852L490.446992,527.265601L489.475175,525.254877L488.330047,523.336158L489.423794,521.550162L489.402783,518.786917L487.436149,518.010571L485.098993,517.708289L487.395411,516.911515L485.846160,515.471770L482.168574,513.765762L479.912973,511.320355L477.762477,508.366544L471.502341,503.955579L468.731688,500.596580L466.758587,498.147686L464.700004,495.383893L463.758581,492.008074L462.165389,490.022999L460.255688,487.537554L458.346552,485.275789L456.574307,483.285130L455.128385,481.653082L453.017785,480.355970L451.235675,479.235923L449.633580,477.850114L447.115461,476.023537L445.305090,474.730368L443.375834,472.561194L440.911618,470.991392L438.372452,469.263627L436.143616,466.902746L433.753031,464.328754L431.646274,462.856328L429.666481,460.552428L427.818303,458.390308L424.244555,455.978467L421.187514,452.553349L419.854169,450.902182L414.718910,445.953624L413.171748,443.284630L412.666705,438.779195L413.170753,436.367985L415.216434,433.684824L417.201269,433.052647L422.361379,432.221458L425.442794,430.973925L428.410926,430.181735L430.240338,429.068169L432.140019,427.937480L432.715055,424.933591L432.887879,421.887800L431.579630,419.580864L430.644049,417.637199L427.826116,416.332732L425.813157,415.921889L423.383947,415.658000L416.279544,414.384883L410.591794,412.341289L408.836210,411.288442L403.460871,410.788696L398.119785,409.646316L395.650916,407.716226L393.364014,406.551062L390.133721,405.755375L386.520353,403.988147L385.669339,406.126965L383.898421,407.994613L382.860727,410.127612L381.374491,412.009153L381.306722,414.214375L382.466924,417.243281L380.026901,417.491702L377.181815,418.456998L375.347185,419.721370L373.290321,420.006514L371.609805,417.839438L369.832037,418.921567L369.290312,421.620536L367.737830,424.499717L370.037197,428.005713L370.393142,430.377860L371.958339,432.234866L371.987025,435.056581L369.828448,435.529102L369.401531,438.049835L370.969947,439.452651L371.613933,441.428860L374.307174,442.762180L376.204630,444.419745L376.767109,446.565096L375.073945,448.878201L372.616152,449.580933L371.864210,451.483924L373.172764,453.708012L375.290501,455.126116L377.280732,457.025156L379.173566,456.212681L380.811524,458.640153L384.792253,461.390527L385.519837,460.432691L387.773782,459.581061L390.366611,460.983178L392.399062,461.865998L394.506042,461.702908L395.900894,463.185547L398.260080,462.129715L400.284937,461.934002L402.321163,461.552581L403.623516,463.819667L405.979056,466.022481L406.411899,468.092527L406.558234,470.416289L405.755353,472.299085L402.660461,473.452780L407.993953,478.955247L409.733130,477.898654L412.074279,478.929332L412.429172,481.508907L412.265465,484.224153L412.514355,484.418068L412.993043,486.767047L414.340971,488.390678L416.355690,492.232453L416.716072,494.219806L418.760752,494.253326L420.893822,493.297924L423.777029,493.248049L426.313833,493.331406L428.293855,494.495707L429.811779,495.909795L431.155996,499.499547L429.082152,502.415207L428.371660,505.300240L427.022946,507.100539L427.544302,509.613958L426.079574,511.111500L427.486704,512.678534L429.376287,513.588317L429.566148,516.094777L430.964733,517.782931L434.375587,515.687794L439.117113,514.029000L443.188182,513.730152L447.180838,515.790758L446.358922,517.700933L449.252028,518.091115L449.785579,520.149706L447.611203,521.882011L449.259987,523.831804L450.718898,525.397586L452.539872,526.514189L453.806702,528.353783L456.342705,530.057586L458.115729,531.882258L462.937832,532.841298L466.117673,533.440825L470.195337,535.155542L472.091530,535.994334L474.196268,537.146815L474.826232,539.233721L475.161959,541.627165L475.426088,544.434732L476.673653,546.756595L476.809460,548.772452L475.025545,551.352073L475.399999,553.347871L473.669329,554.438845L474.226910,557.365441L475.256262,559.451911L476.920061,561.839075L478.327082,563.839276L479.729010,565.419323L482.403059,566.242556L484.058445,568.323777L486.206800,569.731724Z " />

<path data-nuts2="ITF6" d="M341.222195,637.011069L345.190811,633.105494L347.310797,629.666756L349.417722,628.584684L353.750547,626.218988L356.136492,624.704749L359.135745,623.270495L365.799082,623.097045L367.815721,622.509956L372.899518,620.016260L374.470709,617.862544L375.321749,614.712276L376.234191,612.710410L376.757768,609.844086L378.043575,606.735330L378.120904,604.168053L380.428220,602.230085L384.225668,600.007430L386.712046,599.751084L390.346275,598.777398L393.339792,598.234132L396.577397,598.003804L398.969527,598.112968L403.985403,599.306131L405.816935,600.485866L408.893426,601.852665L412.471822,600.285362L413.173741,598.021281L414.475705,596.187984L413.248772,593.854830L413.125829,591.362806L414.522331,589.256016L416.581461,585.321014L416.374300,583.022185L417.602231,580.752507L420.189214,577.629130L421.916114,576.398659L420.061863,575.487221L418.033841,573.125783L417.627459,570.214181L414.860923,568.704946L411.814263,565.504145L410.372254,561.855093L409.077105,559.555063L407.076958,559.198713L405.097263,558.299455L401.879440,557.348427L398.959954,552.645050L400.064011,550.664795L398.920325,548.533689L399.778398,546.089051L401.239806,544.481715L403.798928,542.614402L408.172524,540.317533L409.927847,537.535037L410.543152,533.945946L411.742760,531.909048L414.327482,530.365472L412.990222,529.362610L410.772299,528.646343L407.547164,527.991227L405.788042,526.861101L403.474783,527.035784L402.964671,529.126432L401.507697,530.528020L400.531122,532.750497L397.731573,534.841802L395.951067,536.308282L395.679869,538.528563L392.729807,535.334106L389.318330,536.787764L385.742266,535.013124L383.160382,534.903105L381.538451,533.179779L381.022026,530.493786L382.006679,528.304788L380.025783,527.995384L378.353751,526.891747L375.289512,526.826502L373.333395,525.282858L370.258200,526.849589L368.483966,528.699900L368.839562,532.498925L367.562540,535.001616L366.909673,537.213255L366.077602,540.997227L366.268285,543.869724L365.644822,550.686464L367.374194,552.894507L367.929919,556.171709L368.719799,558.104666L368.629225,564.004035L367.959226,567.735331L365.269224,575.743957L365.018763,578.521511L364.300712,582.056990L365.197522,584.680644L366.018090,587.478744L367.532683,589.377625L366.194157,593.003178L364.818920,595.201655L360.602039,598.325551L357.527183,598.849443L354.470247,597.000896L352.212617,596.620088L349.269332,597.551230L346.455470,597.766726L344.224223,598.002849L342.468812,599.799251L343.738688,601.719839L344.751838,603.744008L345.343937,605.734133L343.114027,608.547296L340.348688,610.657496L338.710321,612.518631L336.069639,615.029484L333.449837,616.804895L329.781629,617.297543L327.297812,616.863951L324.883436,617.053049L323.810343,619.354581L324.097831,621.352425L322.912830,623.187989L321.456994,624.976399L321.722275,627.050978L320.082077,629.068095L321.867715,632.971501L324.036013,634.832577L327.341047,635.670615L333.011833,637.310179L334.999566,638.129427L338.234749,638.591136Z " />

<path data-nuts2="ITE4" d="M260.933459,427.026510L262.857131,426.413100L260.340023,426.430708L259.478480,428.925051Z M308.171820,422.172245L310.284708,422.014157L312.362831,420.701848L313.672708,418.144739L314.810458,415.783990L314.885120,413.784782L317.184883,413.529654L320.776719,412.244705L322.044667,410.668596L324.431308,410.085783L325.994242,407.947733L325.246270,406.070276L326.284439,403.386519L326.630777,401.344341L325.232907,398.665814L324.947698,396.568935L323.394109,395.249713L321.040871,393.531401L318.380555,391.980595L317.854434,389.119074L316.044441,387.359503L313.872023,386.675985L310.611634,387.940392L307.713939,386.415734L306.173109,383.532076L304.432193,380.977542L302.240890,381.314855L302.571243,379.239337L303.590433,377.228303L304.158901,374.651596L302.717469,372.701015L301.577771,372.032299L299.590011,369.671311L297.990852,368.054570L296.596283,366.484677L294.545956,363.986233L292.011281,363.703718L291.544390,361.191079L292.638858,358.308881L294.883979,357.406772L296.875304,355.970247L299.167397,355.288972L300.666733,357.689175L302.973687,359.079424L305.312514,360.226777L307.594516,360.115733L309.652028,359.941218L309.778606,357.791652L309.577172,355.587068L307.816044,353.946140L306.855347,351.741115L307.456231,348.535270L305.643833,345.791766L307.266266,344.149034L306.500927,341.541789L305.853879,339.463276L309.189195,338.009521L309.984010,335.979064L309.647879,333.927027L311.182706,332.586230L313.989005,332.582219L316.607017,333.601444L319.154098,335.103361L321.923511,335.004915L323.451096,332.918888L322.237249,331.073564L322.314951,328.457333L322.792786,328.113137L321.692990,325.592063L319.632238,323.667475L316.752869,323.224195L315.979645,322.817110L314.112401,325.281763L311.839951,327.287899L307.211899,327.171292L305.982936,325.576496L302.216421,325.518553L299.504979,324.672906L298.492710,326.986779L295.733141,327.660291L293.499386,327.981480L291.428460,327.983418L289.087419,328.141151L288.769525,330.733782L285.248709,331.184691L283.759652,329.572909L281.880249,330.501616L280.820682,332.402332L278.647776,332.920008L276.404628,333.295088L276.307411,331.199302L274.150678,330.298954L274.800027,328.124218L272.786975,327.876568L273.231965,325.687489L274.678101,324.010367L272.982676,322.713774L270.811500,323.419670L269.457445,321.873940L268.313874,320.100740L269.154131,317.899903L268.096988,315.367490L269.214004,313.664121L269.096298,311.278405L268.140005,309.009244L266.348602,307.912030L264.350659,307.299516L260.277919,307.170292L258.701998,304.234571L257.039340,301.540587L259.309113,300.840518L260.863841,299.557393L259.951006,297.487022L259.250127,295.042516L258.934275,292.984630L256.944953,291.879234L254.190631,293.579667L252.750932,291.500042L250.844529,293.159293L252.063763,294.995051L252.925478,296.858809L251.389301,298.976341L249.694583,300.850590L248.595273,303.007209L245.916307,303.519560L242.922325,303.486734L240.510423,304.545034L238.313607,303.190664L236.886841,304.843497L235.611307,306.535745L237.065920,308.339287L236.657325,310.622533L232.808567,310.169907L230.189176,309.277379L227.235491,311.263421L226.831251,312.246321L230.516052,316.343361L233.537408,321.608260L234.561936,325.652937L234.347871,330.893236L234.796456,333.466538L234.788407,335.505159L235.741504,337.871945L235.967654,340.642714L239.655294,341.342820L241.642492,345.200376L243.371839,346.771908L243.845212,348.943253L245.328833,350.923560L247.116567,352.937514L247.681255,355.115091L247.926751,359.336739L247.216849,363.163239L248.211749,366.127145L251.032616,369.309025L252.964158,372.595717L254.551419,376.187433L256.551265,382.346264L257.341794,385.888014L259.784878,390.052508L261.586931,391.160931L264.194513,394.283982L267.884201,396.007286L270.636148,399.721854L271.594233,401.792056L272.258248,404.658000L272.033477,409.229473L273.203552,410.988252L275.683123,410.382562L281.241799,409.825320L283.419727,410.724143L285.500515,410.499629L287.715736,411.835690L289.388580,413.270489L292.082409,416.827664L294.451909,418.786506L296.621709,420.135560L297.909439,418.546140L301.382949,419.092442L303.890844,420.286120L305.681094,423.021098Z " />

<path data-nuts2="ITG2" d="M61.926492,458.105677L62.786390,456.035953L63.695988,454.178514L67.152383,451.399948L67.335664,449.036944L68.794613,447.044643L72.159178,443.935608L72.727569,440.830175L74.637972,438.589047L75.891362,436.608872L76.437430,434.608491L77.625328,432.939897L79.404512,430.906900L80.377935,427.506784L81.388027,425.694594L83.448032,422.120204L84.283802,420.257831L86.396446,419.582552L85.598931,417.499821L87.277253,415.343238L89.413152,413.051916L90.819969,410.893761L89.429756,409.103411L88.923360,405.792712L88.627456,403.488177L89.397463,401.247135L90.832481,398.426313L93.305113,396.787569L95.711309,395.592193L99.829554,394.705955L100.905708,392.938689L102.922348,391.828630L105.492982,389.164225L104.879536,386.704435L105.114169,384.366714L104.237820,382.503257L104.636758,380.306450L106.087540,377.507055L105.226584,375.582901L106.319363,373.311089L105.148734,370.036808L106.601121,368.102038L108.663934,368.191456L107.544724,366.341003L106.619153,364.545278L105.251583,362.863850L107.198465,362.017812L105.196757,361.756342L103.500746,360.224192L102.137863,358.638775L103.561161,360.073463L105.091165,358.634497L106.541098,356.824271L108.608897,356.975088L106.184076,355.826494L105.270927,353.699557L103.132801,353.938989L105.635876,351.490620L107.549145,350.813553L107.313958,348.608694L106.599118,346.443598L104.471021,346.511848L102.496172,347.159514L103.019135,344.467598L103.571234,342.485910L101.871602,341.000551L100.951245,339.160725L98.519520,339.219451L98.127646,337.200321L97.183643,335.043082L95.606974,333.666211L93.278415,334.020488L92.093713,336.155415L90.748103,338.015534L88.264287,338.315083L85.877018,337.687862L83.561991,336.837965L80.788575,338.436765L76.619103,339.632706L74.172808,341.226745L71.498721,342.701060L67.459621,343.627680L64.969044,342.226163L62.682522,342.538640L59.657920,343.441202L55.949487,343.926441L53.597359,343.395087L50.925124,342.256269L47.962622,339.685003L45.336298,337.840701L44.162365,335.642089L43.553576,331.927299L44.575269,329.915693L42.524234,328.573166L41.490445,331.148899L42.240292,333.351349L40.605519,335.103918L38.149643,337.129630L36.722304,338.986244L34.288631,340.136149L35.490745,342.881981L35.835722,345.000811L34.317868,346.742327L32.171219,346.649272L32.463698,348.871278L34.985026,349.518621L33.477735,350.990186L35.964340,351.188331L38.433954,352.191335L38.216786,354.653513L38.058202,357.382324L39.157171,359.221585L38.770422,361.287245L38.271924,364.470767L36.817009,366.141014L35.857974,367.994066L38.777449,370.741049L39.020138,373.182175L37.626472,375.288910L36.216623,376.977115L35.303646,379.064539L34.763699,381.602671L34.657678,384.506672L31.365357,385.201994L29.276643,385.517997L28.873160,387.567975L27.415578,389.750264L26.539292,393.047685L26.816455,395.848753L29.098947,394.096083L31.196091,394.885034L31.865702,396.814105L31.830066,398.937118L28.937580,402.858944L25.921728,404.228862L24.980883,401.562305L24.169082,403.467363L23.289951,405.561550L22.544498,407.443112L22.239386,409.982962L21.286789,412.003516L19.211323,413.981942L15.999782,415.757082L15.006156,417.534826L15.692823,418.245728L14.244593,420.152354L12.456127,421.414144L12.645735,423.559568L13.641656,425.769386L11.598325,427.826153L8.511010,429.600608L9.347140,431.578326L10.306982,434.285790L10.810072,436.940585L9.513866,438.650255L8.784057,436.604931L5.160427,436.244408L4.495022,438.131657L4.181202,440.130940L4.529314,442.228037L5.003503,444.276931L7.123514,443.457870L9.006239,440.260600L12.290457,441.926705L13.637147,443.953305L12.419673,446.436008L13.316573,448.254254L13.224590,450.479367L12.039552,452.215013L13.758769,453.984437L15.489344,452.805647L18.181103,452.278736L19.377861,454.150977L21.012907,456.089048L22.091477,457.862866L24.222138,457.977153L26.466205,457.381337L32.725558,456.288085L33.667821,454.468302L35.451458,452.997704L35.230993,449.741716L36.322305,447.464007L39.202472,445.966308L41.985635,445.898964L43.795235,448.080937L45.875472,447.290615L48.288316,448.730471L51.328964,450.942589L52.857948,453.581079L53.740494,455.968870L54.769171,457.901174L57.252096,458.188766L58.897132,459.690907Z M3.119476,434.230666L4.177481,432.057656L4.506476,429.854398L2.228547,429.297058L0.408896,430.256337L0.713406,432.530539L2.410905,434.409395Z M105.650331,343.020750L105.921728,340.845607L104.310343,342.073805L105.486654,343.986405Z M105.833987,337.300537L103.759021,338.106372L102.788867,339.887998L105.082186,340.048653Z M46.199202,325.734783L49.452362,324.413166L51.733932,325.971924L52.980279,323.923454L52.319663,321.997547L49.708273,322.429793L48.305598,323.858241L46.040265,325.662017L44.193219,327.122403L46.618593,328.114872Z " />

<path data-nuts2="ITF5" d="M395.951067,536.308282L397.731573,534.841802L400.531122,532.750497L401.507697,530.528020L402.964671,529.126432L403.474783,527.035784L405.788042,526.861101L407.547164,527.991227L410.772299,528.646343L412.990222,529.362610L414.327482,530.365472L417.882227,528.556094L420.964738,526.389810L422.342243,524.429088L425.017908,522.064945L430.964733,517.782931L429.566148,516.094777L429.376287,513.588317L427.486704,512.678534L426.079574,511.111500L427.544302,509.613958L427.022946,507.100539L428.371660,505.300240L429.082152,502.415207L431.155996,499.499547L429.811779,495.909795L428.293855,494.495707L426.313833,493.331406L423.777029,493.248049L420.893822,493.297924L418.760752,494.253326L416.716072,494.219806L416.355690,492.232453L414.340971,488.390678L412.993043,486.767047L412.514355,484.418068L412.265465,484.224153L412.429172,481.508907L412.074279,478.929332L409.733130,477.898654L407.993953,478.955247L402.660461,473.452780L405.755353,472.299085L406.558234,470.416289L406.411899,468.092527L405.979056,466.022481L403.623516,463.819667L402.321163,461.552581L400.284937,461.934002L398.260080,462.129715L395.900894,463.185547L394.506042,461.702908L392.399062,461.865998L390.366611,460.983178L387.773782,459.581061L385.519837,460.432691L384.792253,461.390527L384.760107,463.496354L383.864480,466.780425L382.164548,468.046046L380.612904,469.699331L377.413387,469.847547L374.205519,469.321145L371.967703,468.520507L371.971344,471.552020L369.974067,470.987095L371.521785,473.044110L370.997515,475.711697L369.866173,477.515886L371.023656,480.558320L372.486315,482.289036L371.593633,484.191375L370.040362,485.632059L371.455358,487.523706L373.123029,488.941752L372.364955,491.127688L371.501769,493.143813L372.818897,495.537448L374.779927,499.673128L376.632083,502.192913L375.771398,504.560885L376.636676,507.464926L378.645103,508.799522L378.372823,511.144797L376.852412,512.812733L374.656249,513.186667L372.325563,513.889687L371.323058,515.976346L368.520561,518.593738L366.113654,520.436968L366.850832,522.456753L367.883969,524.422161L368.372791,526.465504L368.483966,528.699900L370.258200,526.849589L373.333395,525.282858L375.289512,526.826502L378.353751,526.891747L380.025783,527.995384L382.006679,528.304788L381.022026,530.493786L381.538451,533.179779L383.160382,534.903105L385.742266,535.013124L389.318330,536.787764L392.729807,535.334106L395.679869,538.528563Z " />

</g>

</svg>

